PathFileType	4	(X/Y/Z)	C:/Users/opensim2020/Desktop/walking_exp_matlab/subject06_walking13_straight_03_cyclic.trc	
DataRate	CameraRate	NumFrames	NumMarkers	Units	OrigDataRate	OrigDataStartFrame	OrigNumFrames	
100.00	100.00	8	50	mm	100.00	2208	111	
Frame#	Time	LFHD			RFHD			LBHD			RBHD			C7			T10			CLAV			STRN			RBAK			LSHO			LUPA			LELB			LFRM			LWRA			LWRB			LFIN			RSHO			RUPA			RELB			RFRM			RWRA			RWRB			RFIN			LASI			RASI			LPSI			RPSI			LTHI			LKNE			LTIB			LANK			LHEE			LTOE			RTHI			RKNE			RTIB			RANK			RHEE			RTOE			*39			*40			*41			*42			*43			*44			*45			*46			*47			*48			*49			
		X1	Y1	Z1	X2	Y2	Z2	X3	Y3	Z3	X4	Y4	Z4	X5	Y5	Z5	X6	Y6	Z6	X7	Y7	Z7	X8	Y8	Z8	X9	Y9	Z9	X10	Y10	Z10	X11	Y11	Z11	X12	Y12	Z12	X13	Y13	Z13	X14	Y14	Z14	X15	Y15	Z15	X16	Y16	Z16	X17	Y17	Z17	X18	Y18	Z18	X19	Y19	Z19	X20	Y20	Z20	X21	Y21	Z21	X22	Y22	Z22	X23	Y23	Z23	X24	Y24	Z24	X25	Y25	Z25	X26	Y26	Z26	X27	Y27	Z27	X28	Y28	Z28	X29	Y29	Z29	X30	Y30	Z30	X31	Y31	Z31	X32	Y32	Z32	X33	Y33	Z33	X34	Y34	Z34	X35	Y35	Z35	X36	Y36	Z36	X37	Y37	Z37	X38	Y38	Z38	X39	Y39	Z39	X40	Y40	Z40	X41	Y41	Z41	X42	Y42	Z42	X43	Y43	Z43	X44	Y44	Z44	X45	Y45	Z45	X46	Y46	Z46	X47	Y47	Z47	X48	Y48	Z48	X49	Y49	Z49	X50	Y50	Z50	

1	0.000	-1058.72278	-464.26596	1645.66724	-928.26202	-477.77267	1629.79919	-1074.89124	-598.39972	1598.19287	-946.38086	-610.42578	1587.36389	-1025.07227	-612.44269	1437.63184	-1020.39502	-656.48792	1108.90503	-1014.51025	-504.09048	1356.48010	-1023.97485	-468.86411	1180.92163	-956.59753	-696.16687	1267.42371	-1180.53931	-545.61682	1393.57483	-1249.17615	-523.88403	1192.39233	-1258.98730	-508.21487	1080.82947	-1284.06677	-396.77682	989.53162	-1252.31580	-267.56705	974.66302	-1274.81689	-302.65042	916.98938	-1284.97180	-213.44156	903.42194	-857.34857	-564.16040	1387.79077	-777.64923	-643.16113	1200.37793	-764.75220	-657.03021	1078.27295	-745.95703	-668.53229	958.35870	-771.55072	-639.46722	808.06647	-735.20874	-694.64746	823.12030	-731.16516	-677.56812	740.12537	-1131.32275	-483.03891	943.41089	-910.33386	-469.75784	959.18878	-1095.44531	-639.22510	972.73901	-927.46362	-624.59821	979.55054	-1186.65308	-582.02161	631.29846	-1174.69397	-598.49835	466.28665	-1167.17041	-786.40405	289.43649	-1127.56042	-901.06708	160.29193	-1080.10120	-936.00146	176.64812	-1120.00732	-825.85596	33.62179	-847.13409	-454.62164	634.68677	-878.94592	-414.23257	518.30438	-881.04266	-410.97012	249.93039	-929.69885	-397.87384	66.12267	-976.07928	-434.11380	42.88493	-929.46802	-244.18004	36.75150	-1008.30157	-567.84924	1686.69482																														 
2	0.010	-1057.26416	-454.60443	1647.72168	-926.93335	-468.20764	1631.48999	-1073.69006	-588.78961	1600.33423	-945.16852	-600.95087	1589.12048	-1023.89185	-602.49310	1439.32178	-1019.22003	-645.94220	1110.57336	-1013.62109	-494.03345	1358.53906	-1022.77356	-457.69302	1183.52881	-955.13239	-685.69348	1269.05737	-1179.39026	-536.25122	1395.57605	-1248.07141	-514.95825	1194.54492	-1257.29761	-500.89487	1082.72290	-1282.82910	-390.74738	989.45502	-1251.30237	-262.10883	971.50146	-1274.13586	-298.89886	913.93671	-1284.41748	-209.56174	899.40387	-856.40997	-553.79132	1389.76917	-776.13043	-630.58569	1201.55701	-763.56573	-643.24866	1079.33325	-744.87457	-653.07703	959.25641	-771.06805	-622.17407	809.40430	-734.31030	-676.88501	823.84924	-730.59753	-659.01740	740.98547	-1129.42383	-472.12292	945.48889	-908.42474	-459.49011	961.13306	-1094.37866	-628.44928	974.44861	-926.61053	-613.76703	981.40948	-1185.89600	-567.57965	632.03931	-1174.99268	-580.81427	466.98605	-1167.56592	-772.04443	294.25406	-1128.23206	-887.94647	167.41377	-1080.14319	-921.42920	185.73003	-1120.76782	-821.71167	35.53078	-846.35071	-446.89539	635.50977	-878.17499	-408.28607	518.32208	-880.95007	-408.36920	250.07080	-929.97809	-397.37015	66.32226	-976.25439	-434.00720	43.04242	-929.86279	-243.77733	36.15704	-1006.83130	-558.26886	1688.63037																														 
3	0.020	-1055.92126	-445.11203	1649.73035	-925.55225	-458.86691	1633.20984	-1072.50549	-579.20648	1602.35901	-944.15131	-591.46362	1590.86255	-1022.74683	-592.58752	1441.00098	-1018.00110	-635.58472	1112.28711	-1012.68457	-483.95041	1360.57471	-1021.99756	-447.63358	1185.28516	-953.63049	-675.19287	1270.63879	-1178.35938	-526.93500	1397.57751	-1246.90564	-506.19751	1196.44226	-1256.08997	-493.69543	1084.39392	-1281.77063	-385.60007	988.65912	-1250.38953	-256.95706	967.93884	-1273.20947	-294.67813	912.15094	-1283.81458	-206.00259	894.88776	-855.45221	-543.33118	1391.71118	-774.64355	-617.89960	1202.67822	-762.25397	-629.45624	1080.32800	-743.81281	-637.47198	960.13806	-770.58734	-604.40149	810.78931	-733.71753	-659.07593	824.01147	-730.02643	-639.88794	741.65253	-1127.64722	-461.58185	947.43024	-906.78430	-449.42148	962.79968	-1093.25732	-618.12744	975.99292	-925.29163	-603.77936	983.33258	-1185.06641	-553.26788	632.75122	-1175.08484	-563.13440	467.75815	-1166.79907	-755.84711	299.29730	-1128.83057	-874.36218	174.37068	-1080.98804	-906.58893	194.81558	-1120.01904	-815.19818	39.07072	-845.84705	-439.88126	636.14948	-877.25305	-402.79169	518.53302	-880.93103	-406.27563	250.16946	-930.26898	-397.07648	66.39016	-976.45349	-434.01077	43.22818	-930.16260	-243.48914	35.74578	-1005.46008	-548.82764	1690.51697																														 
4	0.030	-1054.58044	-435.72815	1651.80408	-924.25543	-449.63943	1635.03320	-1071.48083	-569.68372	1604.27502	-943.08502	-582.17902	1592.48792	-1021.63788	-582.75513	1442.65027	-1016.80139	-625.44128	1114.02856	-1011.90979	-473.91556	1362.56433	-1020.81219	-436.86685	1187.58972	-952.07263	-664.90839	1272.26843	-1177.54919	-517.52008	1399.38904	-1246.10205	-497.91711	1198.26477	-1254.88733	-486.60495	1085.81592	-1280.71094	-380.51929	987.72083	-1249.48901	-252.25320	963.87695	-1272.69128	-291.09253	909.51801	-1283.29016	-202.98550	889.94025	-854.52795	-532.90228	1393.57275	-773.01660	-605.06781	1203.69482	-760.89270	-615.54419	1081.25793	-742.72510	-621.66174	960.93402	-770.11816	-586.28705	812.23157	-732.70282	-641.44727	824.48438	-729.31818	-620.49902	742.44714	-1126.19556	-451.52795	949.28516	-905.33752	-439.33969	964.14172	-1092.10486	-608.17645	977.39117	-924.19849	-593.51721	985.13995	-1184.22241	-539.14117	633.49023	-1174.91443	-545.40222	468.59616	-1168.00415	-739.51019	303.76016	-1129.02979	-859.97552	181.56262	-1081.37036	-891.05939	203.59149	-1120.60669	-806.53589	43.91217	-845.42548	-433.26157	636.71606	-876.72711	-397.39008	518.70221	-881.06207	-404.56943	250.24800	-930.45331	-396.87415	66.49986	-976.56140	-433.99469	43.31832	-930.42438	-243.17767	35.45143	-1004.16211	-539.52734	1692.35217																														 
5	0.040	-1053.39734	-426.25854	1654.09424	-923.21710	-440.33429	1636.94604	-1070.56165	-560.16571	1606.02197	-942.21484	-572.74585	1594.01184	-1020.60150	-572.91437	1444.41919	-1015.55267	-615.30164	1115.54565	-1011.08337	-463.94241	1364.46387	-1019.90869	-426.73737	1189.47070	-950.51599	-654.69879	1273.87317	-1176.68604	-508.18304	1401.12012	-1245.45093	-490.05817	1199.85400	-1254.03528	-479.91345	1087.20801	-1279.80920	-375.55447	986.50134	-1248.67578	-247.96948	959.37329	-1272.65198	-288.11884	905.94562	-1282.76440	-200.45938	884.41943	-853.57141	-522.42816	1395.41052	-771.63361	-592.44855	1204.72412	-759.49768	-601.60364	1082.13574	-741.60187	-605.70483	961.69641	-769.56171	-568.02441	813.72803	-731.73511	-623.13232	825.05090	-728.80768	-600.62286	743.31671	-1124.98767	-441.80475	951.01575	-904.28607	-429.45047	965.39197	-1090.89355	-598.47638	978.68524	-922.85156	-583.77057	986.94556	-1183.41028	-525.01208	634.30988	-1174.50354	-527.53534	469.57816	-1164.46289	-721.04388	307.90433	-1128.74841	-845.16711	188.48428	-1080.75500	-875.40479	211.05869	-1122.56909	-795.74561	49.03206	-844.48157	-426.79318	637.23871	-876.54224	-392.04697	518.74664	-881.04688	-403.44064	250.34700	-930.54828	-396.77039	66.57516	-976.63824	-433.99387	43.33781	-930.54578	-243.01369	35.28949	-1003.06384	-530.36646	1694.13660																														 
6	0.050	-1052.32385	-417.03848	1656.01794	-922.06396	-431.17694	1638.85059	-1069.73352	-550.71759	1607.70728	-941.30994	-563.41309	1595.49109	-1019.57477	-562.99457	1446.19043	-1014.32648	-605.53333	1117.31104	-1010.39667	-453.97623	1366.33362	-1018.99664	-416.79861	1191.21411	-948.91217	-644.69348	1275.58142	-1175.93262	-498.91434	1402.53467	-1244.75391	-482.58621	1201.10828	-1253.18237	-473.18555	1088.35339	-1279.08997	-371.07468	985.02625	-1247.86377	-244.04283	954.39709	-1272.47412	-285.63754	902.32037	-1282.28613	-198.44781	878.39642	-852.60175	-512.02533	1397.17029	-770.26202	-579.73352	1205.72571	-758.11444	-587.46783	1083.00183	-740.45673	-589.58276	962.49988	-769.15839	-549.44702	815.40472	-730.87103	-604.44476	825.69983	-728.10736	-580.43445	744.43127	-1124.11877	-432.49185	952.67853	-903.40131	-419.64655	966.55707	-1089.71045	-589.07062	979.94183	-921.86652	-573.57617	988.54352	-1182.69214	-510.81326	635.18695	-1173.93286	-509.63315	470.76382	-1164.15784	-703.45703	310.94379	-1127.84033	-830.11261	194.64479	-1078.96399	-859.92944	216.42538	-1125.68616	-781.60437	54.29414	-844.44177	-420.63510	637.69989	-875.88562	-387.21750	518.83514	-881.01428	-402.78931	250.58713	-930.55872	-396.82541	66.66313	-976.68225	-434.05646	43.36925	-930.66382	-243.08249	35.12931	-1002.11444	-521.23584	1695.76123																														 
7	0.060	-1051.35425	-407.72781	1657.97522	-921.10797	-422.01782	1640.71509	-1068.90759	-541.17316	1609.14746	-940.88611	-554.06781	1597.01819	-1018.56958	-553.10394	1447.94006	-1012.99237	-595.76654	1118.93140	-1009.58459	-444.17145	1368.03088	-1018.13702	-407.08926	1192.88025	-947.31116	-634.73236	1277.33191	-1175.10779	-489.33002	1404.09680	-1244.06506	-475.43967	1202.20264	-1252.45386	-466.49261	1089.34570	-1278.48010	-366.79959	983.35626	-1247.12097	-240.55679	949.00128	-1272.22156	-283.75586	898.61505	-1281.79773	-197.10747	871.86182	-851.62256	-501.55453	1398.88037	-768.77161	-566.97064	1206.67407	-756.76227	-573.36664	1083.89026	-739.34955	-573.23022	963.34686	-768.62024	-530.48389	817.21008	-730.00690	-585.10974	826.31415	-727.44940	-559.53961	745.54193	-1123.43884	-423.13916	954.28937	-902.75372	-409.95801	967.76385	-1088.53931	-579.83258	981.24786	-920.65778	-564.01263	990.12683	-1182.08679	-496.61301	636.32367	-1173.25464	-491.70969	472.22308	-1163.60620	-685.93225	314.07092	-1126.63538	-814.10040	199.65364	-1077.11230	-843.83728	220.04131	-1127.74402	-763.68549	60.05867	-843.94696	-414.06772	638.42139	-874.94617	-382.75974	518.98224	-880.73108	-401.80508	250.81686	-930.52252	-396.95175	66.70203	-976.67114	-434.21732	43.26415	-930.86975	-243.20909	35.13971	-1001.27112	-512.14655	1697.36841																														 
8	0.070	-1050.49219	-398.45172	1659.79309	-920.32336	-412.77731	1642.56836	-1068.22522	-531.75604	1610.55945	-940.09100	-544.73468	1598.38354	-1017.49976	-543.30640	1449.64270	-1011.70074	-586.07214	1120.57483	-1008.91260	-434.34424	1369.67993	-1017.35718	-397.40735	1194.47375	-945.64142	-624.87659	1279.13147	-1174.37061	-480.07870	1405.59399	-1243.27039	-468.25156	1203.19434	-1251.81934	-459.93991	1090.26807	-1277.92346	-362.68103	981.48370	-1246.45947	-237.59084	943.24176	-1272.06409	-282.25055	894.31824	-1281.45435	-196.40459	865.03394	-850.70276	-491.07816	1400.54968	-767.75781	-554.27637	1207.69116	-755.44000	-559.25592	1084.82581	-738.15491	-556.82532	964.32123	-768.19025	-510.55612	819.40649	-729.05383	-565.80225	827.10150	-726.78870	-538.58838	746.95032	-1122.88867	-414.04523	955.84387	-902.20862	-400.63992	969.09924	-1087.40698	-570.79736	982.48169	-919.38501	-554.99768	991.80945	-1181.52942	-482.36429	637.73657	-1172.49622	-473.94394	474.03934	-1162.67285	-668.39905	317.19821	-1125.42480	-796.68469	203.14522	-1075.31787	-826.63586	222.24594	-1130.93994	-743.50726	65.46181	-842.97784	-407.24625	639.04834	-874.56525	-378.31378	518.99438	-880.21948	-399.95105	250.95332	-930.41046	-397.01578	66.75327	-976.51550	-434.51144	43.26822	-931.06158	-243.28090	35.16241	-1000.52521	-503.05087	1698.87634																														 
